<svg xmlns="http://www.w3.org/2000/svg" viewBox="0 0 400 120">
  <defs>
    <linearGradient id="grad1" x1="0%" y1="0%" x2="100%" y2="0%">
      <stop offset="0%" style="stop-color:#1e3a8a;stop-opacity:1" />
      <stop offset="100%" style="stop-color:#2563eb;stop-opacity:1" />
    </linearGradient>
  </defs>
  
  <!-- Icon Section -->
  <g transform="translate(40, 20) scale(1.5)">
     <!-- House/Roof Outline -->
     <path d="M3 9l9-7 9 7v11a2 2 0 0 1-2 2H5a2 2 0 0 1-2-2z" stroke="#eab308" stroke-width="2.5" fill="none" stroke-linecap="round" stroke-linejoin="round"/>
     <!-- Hammer Icon integrated -->
     <path d="M13.5 14L10 10l3-3 5 5-2.5 3.5z" fill="#1e3a8a"/>
     <path d="M14 13l-5 5-2 2a2 2 0 0 0 0 2.8l.2.2a2 2 0 0 0 2.8 0l2-2 5-5" stroke="#1e3a8a" stroke-width="2.5" stroke-linecap="round"/>
  </g>

  <!-- Text Section -->
  <text x="120" y="65" font-family="Arial, Helvetica, sans-serif" font-weight="bold" font-size="42" fill="#1e3a8a">AGA</text>
  <text x="120" y="95" font-family="Arial, Helvetica, sans-serif" font-weight="500" font-size="14" fill="#6b7280" letter-spacing="3">CONSTRUCTION GROUP</text>
</svg>
