<svg xmlns="http://www.w3.org/2000/svg" viewBox="0 0 400 120">
  <defs>
    <linearGradient id="grad1" x1="0%" y1="0%" x2="100%" y2="0%">
      <stop offset="0%" style="stop-color:#1e3a8a;stop-opacity:1" />
      <stop offset="100%" style="stop-color:#2563eb;stop-opacity:1" />
    </linearGradient>
  </defs>
  
  <!-- Icon Section -->
  <g transform="translate(40, 20) scale(1.5)">
     <!-- House/Roof Outline -->
     <path d="M3 9l9-7 9 7v11a2 2 0 0 1-2 2H5a2 2 0 0 1-2-2z" stroke="#eab308" stroke-width="2.5" fill="none" stroke-linecap="round" stroke-linejoin="round"/>
     
     <!-- Square Ruler Icon integrated -->
     <!-- Replaces Hammer -->
     <!-- L-Square shape -->
     <path d="M10 8 L10 20 L22 20" stroke="#1e3a8a" stroke-width="3" fill="none" stroke-linecap="round" stroke-linejoin="round" />
     <!-- Markings on the ruler -->
     <path d="M10 17 L12 17 M10 14 L12 14 M10 11 L12 11 M13 20 L13 18 M16 20 L16 18 M19 20 L19 18" stroke="#1e3a8a" stroke-width="1"/>
  </g>

  <!-- Text Section -->
  <text x="120" y="65" font-family="Arial, Helvetica, sans-serif" font-weight="bold" font-size="42" fill="#1e3a8a">AGA</text>
  <text x="120" y="95" font-family="Arial, Helvetica, sans-serif" font-weight="500" font-size="14" fill="#6b7280" letter-spacing="3">CONSTRUCTION GROUP</text>
</svg>
