<svg xmlns="http://www.w3.org/2000/svg" viewBox="0 0 400 120">
  <defs>
    <linearGradient id="grad1" x1="0%" y1="0%" x2="100%" y2="0%">
      <stop offset="0%" style="stop-color:#1e3a8a;stop-opacity:1" />
      <stop offset="100%" style="stop-color:#2563eb;stop-opacity:1" />
    </linearGradient>
  </defs>
  
  <!-- Icon Section -->
  <g transform="translate(40, 20) scale(1.5)">
     <!-- House/Roof Outline -->
     <path d="M3 9l9-7 9 7v11a2 2 0 0 1-2 2H5a2 2 0 0 1-2-2z" stroke="#eab308" stroke-width="2.5" fill="none" stroke-linecap="round" stroke-linejoin="round"/>
     
     <!-- Wood Plane Icon integrated -->
     <!-- Simple profile of a hand plane -->
     <path d="M8 18h16v-4h-16z" fill="#1e3a8a" /> <!-- Base -->
     <path d="M12 14v-3c0-1.1.9-2 2-2h4c1.1 0 2 .9 2 2v3" fill="#1e3a8a" /> <!-- Handle/Body -->
     <path d="M22 18l-2-6h-2" stroke="#1e3a8a" stroke-width="2" /> <!-- Front knob hint -->
     <!-- Shaving curl -->
     <path d="M24 18c1 0 2-1 2-2s-1-2-2-2" stroke="#eab308" stroke-width="1.5" fill="none" />
  </g>

  <!-- Text Section -->
  <text x="120" y="65" font-family="Arial, Helvetica, sans-serif" font-weight="bold" font-size="42" fill="#1e3a8a">AGA</text>
  <text x="120" y="95" font-family="Arial, Helvetica, sans-serif" font-weight="500" font-size="14" fill="#6b7280" letter-spacing="3">CONSTRUCTION GROUP</text>
</svg>
